<svg width="146" height="45" viewBox="0 0 146 45" fill="none" xmlns="http://www.w3.org/2000/svg">
<path d="M76.9182 11.3063C76.9182 12.9279 75.6045 14.2342 73.9738 14.2342C72.343 14.2342 71.0294 12.9279 71.0294 11.3063C71.0294 9.68468 72.2977 8.37838 73.9738 8.37838C75.6498 8.42342 76.9182 9.72973 76.9182 11.3063ZM64.7782 17.2072C64.7782 17.4775 64.7782 17.9279 64.7782 17.9279C64.7782 17.9279 63.374 16.1261 60.3843 16.1261C55.4468 16.1261 51.5964 19.8649 51.5964 25.045C51.5964 30.1802 55.4015 33.964 60.3843 33.964C63.4193 33.964 64.7782 32.1171 64.7782 32.1171V32.8829C64.7782 33.2432 65.05 33.5135 65.4124 33.5135H69.0816V16.5766C69.0816 16.5766 65.7295 16.5766 65.4124 16.5766C65.05 16.5766 64.7782 16.8919 64.7782 17.2072ZM64.7782 28.0631C64.0987 29.0541 62.7398 29.9099 61.1091 29.9099C58.21 29.9099 55.9903 28.1081 55.9903 25.045C55.9903 21.982 58.21 20.1802 61.1091 20.1802C62.6945 20.1802 64.144 21.0811 64.7782 22.027V28.0631ZM71.7995 16.5766H76.1481V33.5135H71.7995V16.5766ZM136.757 16.1261C133.768 16.1261 132.363 17.9279 132.363 17.9279V8.42342H128.015V33.5135C128.015 33.5135 131.367 33.5135 131.684 33.5135C132.046 33.5135 132.318 33.1982 132.318 32.8829V32.1171C132.318 32.1171 133.722 33.964 136.712 33.964C141.65 33.964 145.5 30.1802 145.5 25.045C145.5 19.9099 141.649 16.1261 136.757 16.1261ZM136.033 29.8649C134.356 29.8649 133.043 29.009 132.363 28.018V21.982C133.043 21.0811 134.492 20.1351 136.033 20.1351C138.932 20.1351 141.151 21.9369 141.151 25C141.151 28.0631 138.932 29.8649 136.033 29.8649ZM125.75 23.4685V33.5586H121.401V23.964C121.401 21.1712 120.495 20.045 118.049 20.045C116.735 20.045 115.376 20.7207 114.516 21.7117V33.5135H110.167V16.5766H113.61C113.972 16.5766 114.244 16.8919 114.244 17.2072V17.9279C115.512 16.6216 117.188 16.1261 118.864 16.1261C120.767 16.1261 122.352 16.6667 123.621 17.7477C125.161 19.009 125.75 20.6306 125.75 23.4685ZM99.6126 16.1261C96.6229 16.1261 95.2187 17.9279 95.2187 17.9279V8.42342H90.8701V33.5135C90.8701 33.5135 94.2221 33.5135 94.5392 33.5135C94.9016 33.5135 95.1734 33.1982 95.1734 32.8829V32.1171C95.1734 32.1171 96.5776 33.964 99.5673 33.964C104.505 33.964 108.355 30.1802 108.355 25.045C108.401 19.9099 104.55 16.1261 99.6126 16.1261ZM98.8879 29.8649C97.2118 29.8649 95.8982 29.009 95.2187 28.018V21.982C95.8982 21.0811 97.3477 20.1351 98.8879 20.1351C101.787 20.1351 104.007 21.9369 104.007 25C104.007 28.0631 101.787 29.8649 98.8879 29.8649ZM87.1103 16.1261C88.4239 16.1261 89.1034 16.3514 89.1034 16.3514V20.3604C89.1034 20.3604 85.4796 19.1441 83.2146 21.7117V33.5586H78.866V16.5766C78.866 16.5766 82.2181 16.5766 82.5352 16.5766C82.8976 16.5766 83.1693 16.8919 83.1693 17.2072V17.9279C83.9847 16.982 85.7513 16.1261 87.1103 16.1261ZM41.9478 31.982C41.7214 31.4414 41.4949 30.8559 41.2684 30.3604C40.906 29.5496 40.5436 28.7838 40.2265 28.0631L40.1812 28.018C37.0556 21.2613 33.7036 14.4144 30.1703 7.65766L30.0344 7.38739C29.672 6.71171 29.3096 5.99099 28.9472 5.27027C28.4942 4.45946 28.0413 3.6036 27.3165 2.79279C25.8669 0.990991 23.7832 0 21.5636 0C19.2987 0 17.2603 0.990991 15.7654 2.7027C15.0859 3.51351 14.5877 4.36937 14.1347 5.18018C13.7723 5.9009 13.4099 6.62162 13.0475 7.2973L12.9116 7.56757C9.42364 14.3243 6.02627 21.1712 2.90068 27.9279L2.85538 28.018C2.53829 28.7387 2.17591 29.5045 1.81352 30.3153C1.58703 30.8108 1.36054 31.3514 1.13405 31.9369C0.545167 33.6036 0.363974 35.1802 0.590465 36.8018C1.08875 40.1802 3.35366 43.018 6.47925 44.2793C7.65701 44.7748 8.88006 45 10.1484 45C10.5108 45 10.9638 44.955 11.3262 44.9099C12.821 44.7297 14.3612 44.2342 15.856 43.3784C17.7132 42.3423 19.4799 40.8559 21.473 38.6937C23.4661 40.8559 25.2781 42.3423 27.09 43.3784C28.5848 44.2342 30.125 44.7297 31.6198 44.9099C31.9822 44.955 32.4352 45 32.7976 45C34.0659 45 35.3343 44.7748 36.4668 44.2793C39.6376 43.018 41.8573 40.1351 42.3555 36.8018C42.7179 35.2252 42.5367 33.6486 41.9478 31.982ZM21.5183 34.3243C19.0722 31.2613 17.4867 28.3784 16.9432 25.9459C16.7167 24.9099 16.6714 24.009 16.8073 23.1982C16.8979 22.4775 17.1697 21.8468 17.532 21.3063C18.3927 20.0901 19.8423 19.3243 21.5183 19.3243C23.1943 19.3243 24.6892 20.045 25.5046 21.3063C25.8669 21.8468 26.1387 22.4775 26.2293 23.1982C26.3652 24.009 26.3199 24.955 26.0934 25.9459C25.5499 28.3333 23.9644 31.2162 21.5183 34.3243ZM39.5923 36.4414C39.2752 38.7838 37.6898 40.8108 35.4702 41.7117C34.383 42.1622 33.2053 42.2973 32.0275 42.1622C30.8951 42.027 29.7626 41.6667 28.5848 40.991C26.9541 40.0901 25.3234 38.6937 23.4208 36.6216C26.4105 32.973 28.2225 29.6396 28.9019 26.6667C29.219 25.2703 29.2643 24.009 29.1284 22.8378C28.9472 21.7117 28.5395 20.6757 27.9054 19.7748C26.5011 17.7477 24.1456 16.5766 21.5183 16.5766C18.891 16.5766 16.5355 17.7928 15.1312 19.7748C14.4971 20.6757 14.0894 21.7117 13.9082 22.8378C13.727 24.009 13.7723 25.3153 14.1347 26.6667C14.8141 29.6396 16.6714 33.018 19.6158 36.6667C17.7585 38.7387 16.0825 40.1351 14.4518 41.036C13.274 41.7117 12.1415 42.0721 11.0091 42.2072C9.78603 42.3423 8.60827 42.1622 7.56641 41.7568C5.34679 40.8559 3.76135 38.8288 3.44426 36.4865C3.30837 35.3604 3.39896 34.2342 3.85195 32.973C3.98784 32.5225 4.21433 32.0721 4.44082 31.5315C4.75791 30.8108 5.1203 30.045 5.48269 29.2793L5.52798 29.1892C8.65357 22.4775 12.0056 15.6306 15.4936 8.96396L15.6295 8.69369C15.9919 8.01802 16.3543 7.2973 16.7167 6.62162C17.0791 5.9009 17.4867 5.22523 17.985 4.63964C18.9363 3.55856 20.2046 2.97297 21.6089 2.97297C23.0131 2.97297 24.2815 3.55856 25.2328 4.63964C25.731 5.22523 26.1387 5.9009 26.5011 6.62162C26.8635 7.2973 27.2259 8.01802 27.5883 8.69369L27.7242 8.96396C31.1668 15.6757 34.5189 22.5225 37.6445 29.2342V29.2793C38.0069 30 38.324 30.8108 38.6864 31.5315C38.9129 32.0721 39.1394 32.5225 39.2752 32.973C39.6376 34.1441 39.7735 35.2703 39.5923 36.4414Z" fill="#DDDDDD"/>
</svg>
