<svg width="182" height="43" viewBox="0 0 182 43" fill="none" xmlns="http://www.w3.org/2000/svg">
<mask id="mask0_229_173" style="mask-type:luminance" maskUnits="userSpaceOnUse" x="53" y="14" width="16" height="19">
<path d="M55.3452 31.6892C54.6789 31.4313 54.243 30.8871 54.243 30.1619C54.243 29.2821 54.9603 28.5578 55.8322 28.5578C56.0883 28.5578 56.2929 28.6092 56.4727 28.6867C57.6007 29.2046 58.805 29.515 60.2663 29.515C62.9315 29.515 64.1877 28.2211 64.1877 25.7356V25.0626C63.0336 26.461 61.7787 27.3145 59.7026 27.3145C56.4985 27.3145 53.6016 24.9589 53.6016 20.8429V20.7915C53.6016 16.6495 56.5495 14.32 59.7026 14.32C61.8293 14.32 63.0855 15.2258 64.1358 16.3906V16.3645C64.1358 15.3035 65.0076 14.4237 66.0841 14.4237C67.1606 14.4237 68.0311 15.3035 68.0311 16.3906V25.3216C68.0311 27.8072 67.4429 29.6188 66.2887 30.7834C65.0076 32.0781 63.0336 32.6475 60.3689 32.6475C58.5484 32.6475 56.9597 32.3371 55.3452 31.6892ZM64.1877 20.8429V20.7915C64.1877 18.9015 62.7264 17.5816 60.8301 17.5816C58.9337 17.5816 57.4981 18.9015 57.4981 20.7915V20.8429C57.4981 22.7583 58.9337 24.0531 60.8301 24.0531C62.7264 24.0531 64.1877 22.7331 64.1877 20.8429Z" fill="white"/>
</mask>
<g mask="url(#mask0_229_173)">
<mask id="mask1_229_173" style="mask-type:luminance" maskUnits="userSpaceOnUse" x="-1" y="0" width="183" height="43">
<path d="M-0.5 43H181.5V0H-0.5V43Z" fill="white"/>
</mask>
<g mask="url(#mask1_229_173)">
<path d="M49.1641 37.1265H72.4716V9.84063H49.1641V37.1265Z" fill="#DDDDDD"/>
</g>
</g>
<mask id="mask2_229_173" style="mask-type:luminance" maskUnits="userSpaceOnUse" x="70" y="14" width="9" height="15">
<path d="M70.2385 16.3904C70.2385 15.3033 71.1095 14.4236 72.1868 14.4236C73.2628 14.4236 74.1338 15.3033 74.1338 16.3904V17.0112C74.6984 15.6661 75.6204 14.4236 76.7745 14.4236C77.9793 14.4236 78.6704 15.2257 78.6704 16.3381C78.6704 17.3739 78.0042 17.9956 77.2105 18.1769C75.236 18.6433 74.1338 20.1697 74.1338 22.9657V26.6412C74.1338 27.7285 73.2628 28.6091 72.1868 28.6091C71.1095 28.6091 70.2385 27.7285 70.2385 26.6412V16.3904Z" fill="white"/>
</mask>
<g mask="url(#mask2_229_173)">
<mask id="mask3_229_173" style="mask-type:luminance" maskUnits="userSpaceOnUse" x="-1" y="0" width="183" height="43">
<path d="M-0.499512 43H181.5V0H-0.499512V43Z" fill="white"/>
</mask>
<g mask="url(#mask3_229_173)">
<path d="M65.7971 33.0884H83.1074V9.94457H65.7971V33.0884Z" fill="#DDDDDD"/>
</g>
</g>
<mask id="mask4_229_173" style="mask-type:luminance" maskUnits="userSpaceOnUse" x="78" y="14" width="13" height="15">
<path d="M78.2109 24.467V24.4158C78.2109 21.3871 80.4917 19.9886 83.7473 19.9886C85.1309 19.9886 86.1306 20.2213 87.105 20.5579V20.325C87.105 18.6948 86.1049 17.788 84.1575 17.788C83.081 17.788 82.2092 17.9442 81.4661 18.177C81.2357 18.2545 81.0821 18.2807 80.9023 18.2807C80.0056 18.2807 79.2874 17.5815 79.2874 16.6747C79.2874 15.9766 79.7224 15.381 80.3386 15.1474C81.5686 14.6818 82.9017 14.4237 84.7212 14.4237C86.8479 14.4237 88.3861 14.9931 89.3595 15.9766C90.3854 17.0113 90.8471 18.5396 90.8471 20.4036V26.719C90.8471 27.7809 90.001 28.6092 88.9498 28.6092C87.8223 28.6092 87.0792 27.8072 87.0792 26.978V26.9517C86.1306 28.0136 84.8238 28.7119 82.9265 28.7119C80.3386 28.7119 78.2109 27.2116 78.2109 24.467ZM87.156 23.5612V22.862C86.4897 22.5517 85.6188 22.3442 84.6693 22.3442C83.0033 22.3442 81.9788 23.0172 81.9788 24.2606V24.312C81.9788 25.3739 82.8506 25.9945 84.1055 25.9945C85.926 25.9945 87.156 24.9849 87.156 23.5612Z" fill="white"/>
</mask>
<g mask="url(#mask4_229_173)">
<mask id="mask5_229_173" style="mask-type:luminance" maskUnits="userSpaceOnUse" x="-1" y="0" width="183" height="43">
<path d="M-0.5 43H181.5V0H-0.5V43Z" fill="white"/>
</mask>
<g mask="url(#mask5_229_173)">
<path d="M73.7695 33.1909H95.2835V9.9444H73.7695V33.1909Z" fill="#DDDDDD"/>
</g>
</g>
<mask id="mask6_229_173" style="mask-type:luminance" maskUnits="userSpaceOnUse" x="92" y="14" width="22" height="15">
<path d="M92.9219 16.3905C92.9219 15.3034 93.7928 14.4237 94.8702 14.4237C95.9466 14.4237 96.8185 15.3034 96.8185 16.3905V16.5467C97.7142 15.3809 98.8941 14.3199 100.867 14.3199C102.661 14.3199 104.02 15.1219 104.737 16.5204C105.942 15.0967 107.378 14.3199 109.248 14.3199C112.145 14.3199 113.887 16.0802 113.887 19.4202V26.6413C113.887 27.7285 113.016 28.6091 111.939 28.6091C110.863 28.6091 109.991 27.7285 109.991 26.6413V20.7139C109.991 18.85 109.171 17.8918 107.71 17.8918C106.249 17.8918 105.352 18.85 105.352 20.7139V26.6413C105.352 27.7285 104.482 28.6091 103.404 28.6091C102.328 28.6091 101.456 27.7285 101.456 26.6413V20.7139C101.456 18.85 100.637 17.8918 99.1756 17.8918C97.7142 17.8918 96.8185 18.85 96.8185 20.7139V26.6413C96.8185 27.7285 95.9466 28.6091 94.8702 28.6091C93.7928 28.6091 92.9219 27.7285 92.9219 26.6413V16.3905Z" fill="white"/>
</mask>
<g mask="url(#mask6_229_173)">
<mask id="mask7_229_173" style="mask-type:luminance" maskUnits="userSpaceOnUse" x="-1" y="0" width="183" height="43">
<path d="M-0.5 43H181.5V1.52588e-05H-0.5V43Z" fill="white"/>
</mask>
<g mask="url(#mask7_229_173)">
<path d="M88.4844 33.0884H118.328V9.8408H88.4844V33.0884Z" fill="#DDDDDD"/>
</g>
</g>
<mask id="mask8_229_173" style="mask-type:luminance" maskUnits="userSpaceOnUse" x="115" y="14" width="22" height="15">
<path d="M115.992 16.3905C115.992 15.3034 116.863 14.4237 117.94 14.4237C119.017 14.4237 119.888 15.3034 119.888 16.3905V16.5467C120.785 15.3809 121.964 14.3199 123.938 14.3199C125.731 14.3199 127.09 15.1219 127.807 16.5204C129.012 15.0967 130.448 14.3199 132.318 14.3199C135.215 14.3199 136.958 16.0802 136.958 19.4202V26.6413C136.958 27.7285 136.087 28.6091 135.009 28.6091C133.933 28.6091 133.061 27.7285 133.061 26.6413V20.7139C133.061 18.85 132.241 17.8918 130.781 17.8918C129.319 17.8918 128.422 18.85 128.422 20.7139V26.6413C128.422 27.7285 127.552 28.6091 126.475 28.6091C125.398 28.6091 124.527 27.7285 124.527 26.6413V20.7139C124.527 18.85 123.707 17.8918 122.246 17.8918C120.785 17.8918 119.888 18.85 119.888 20.7139V26.6413C119.888 27.7285 119.017 28.6091 117.94 28.6091C116.863 28.6091 115.992 27.7285 115.992 26.6413V16.3905Z" fill="white"/>
</mask>
<g mask="url(#mask8_229_173)">
<mask id="mask9_229_173" style="mask-type:luminance" maskUnits="userSpaceOnUse" x="-1" y="0" width="183" height="43">
<path d="M-0.496094 43H181.504V0H-0.496094V43Z" fill="white"/>
</mask>
<g mask="url(#mask9_229_173)">
<path d="M111.555 33.0884H141.398V9.84079H111.555V33.0884Z" fill="#DDDDDD"/>
</g>
</g>
<mask id="mask10_229_173" style="mask-type:luminance" maskUnits="userSpaceOnUse" x="138" y="14" width="13" height="15">
<path d="M138.238 24.467V24.4158C138.238 21.3871 140.519 19.9886 143.774 19.9886C145.158 19.9886 146.158 20.2213 147.131 20.5579V20.325C147.131 18.6948 146.133 17.788 144.183 17.788C143.107 17.788 142.236 17.9442 141.493 18.177C141.263 18.2545 141.109 18.2807 140.929 18.2807C140.032 18.2807 139.314 17.5815 139.314 16.6747C139.314 15.9766 139.75 15.381 140.365 15.1474C141.596 14.6818 142.929 14.4237 144.748 14.4237C146.876 14.4237 148.413 14.9931 149.386 15.9766C150.412 17.0113 150.873 18.5396 150.873 20.4036V26.719C150.873 27.7809 150.028 28.6092 148.978 28.6092C147.849 28.6092 147.106 27.8072 147.106 26.978V26.9517C146.158 28.0136 144.85 28.7119 142.954 28.7119C140.365 28.7119 138.238 27.2116 138.238 24.467ZM147.183 23.5612V22.862C146.517 22.5517 145.645 22.3442 144.697 22.3442C143.03 22.3442 142.006 23.0172 142.006 24.2606V24.312C142.006 25.3739 142.877 25.9945 144.132 25.9945C145.952 25.9945 147.183 24.9849 147.183 23.5612Z" fill="white"/>
</mask>
<g mask="url(#mask10_229_173)">
<mask id="mask11_229_173" style="mask-type:luminance" maskUnits="userSpaceOnUse" x="-1" y="0" width="183" height="43">
<path d="M-0.5 43H181.5V0H-0.5V43Z" fill="white"/>
</mask>
<g mask="url(#mask11_229_173)">
<path d="M133.801 33.1909H155.314V9.9444H133.801V33.1909Z" fill="#DDDDDD"/>
</g>
</g>
<mask id="mask12_229_173" style="mask-type:luminance" maskUnits="userSpaceOnUse" x="152" y="14" width="10" height="15">
<path d="M152.949 16.3905C152.949 15.3034 153.821 14.4237 154.898 14.4237C155.975 14.4237 156.846 15.3034 156.846 16.3905V17.0112C157.41 15.6661 158.332 14.4237 159.486 14.4237C160.69 14.4237 161.382 15.2257 161.382 16.3381C161.382 17.3739 160.715 17.9956 159.921 18.1769C157.948 18.6433 156.846 20.1698 156.846 22.9657V26.6413C156.846 27.7285 155.975 28.6091 154.898 28.6091C153.821 28.6091 152.949 27.7285 152.949 26.6413V16.3905Z" fill="white"/>
</mask>
<g mask="url(#mask12_229_173)">
<mask id="mask13_229_173" style="mask-type:luminance" maskUnits="userSpaceOnUse" x="-1" y="0" width="183" height="43">
<path d="M-0.5 43H181.5V0H-0.5V43Z" fill="white"/>
</mask>
<g mask="url(#mask13_229_173)">
<path d="M148.512 33.0884H165.822V9.94457H148.512V33.0884Z" fill="#DDDDDD"/>
</g>
</g>
<mask id="mask14_229_173" style="mask-type:luminance" maskUnits="userSpaceOnUse" x="162" y="9" width="5" height="20">
<path d="M162.562 11.3678C162.562 10.2807 163.433 9.4012 164.51 9.4012C165.587 9.4012 166.459 10.2807 166.459 11.3678V26.6412C166.459 27.7285 165.587 28.6091 164.51 28.6091C163.433 28.6091 162.562 27.7285 162.562 26.6412V11.3678Z" fill="white"/>
</mask>
<g mask="url(#mask14_229_173)">
<mask id="mask15_229_173" style="mask-type:luminance" maskUnits="userSpaceOnUse" x="-1" y="0" width="183" height="43">
<path d="M-0.5 43H181.5V-1.52588e-05H-0.5V43Z" fill="white"/>
</mask>
<g mask="url(#mask15_229_173)">
<path d="M158.125 33.0884H170.899V4.92211H158.125V33.0884Z" fill="#DDDDDD"/>
</g>
</g>
<mask id="mask16_229_173" style="mask-type:luminance" maskUnits="userSpaceOnUse" x="167" y="14" width="15" height="19">
<path d="M169.56 32.3107C168.996 32.1042 168.329 31.6378 168.329 30.6805C168.329 29.7224 169.073 29.0745 169.868 29.0745C170.175 29.0745 170.354 29.1268 170.508 29.1783C170.841 29.282 171.047 29.3343 171.329 29.3343C172.02 29.3343 172.354 29.2045 172.713 28.5053L172.84 28.195L168.151 17.2187C168.048 16.9598 167.945 16.5719 167.945 16.3129C167.945 15.1996 168.791 14.4236 169.868 14.4236C170.841 14.4236 171.405 14.9667 171.738 15.8979L174.712 23.9753L177.582 15.924C177.89 15.0967 178.452 14.4236 179.453 14.4236C180.453 14.4236 181.297 15.1996 181.297 16.2352C181.297 16.5467 181.196 16.986 181.119 17.1673L176.326 28.7904C175.172 31.6115 174.02 32.6734 171.687 32.6734C170.816 32.6734 170.201 32.5445 169.56 32.3107Z" fill="white"/>
</mask>
<g mask="url(#mask16_229_173)">
<mask id="mask17_229_173" style="mask-type:luminance" maskUnits="userSpaceOnUse" x="-1" y="0" width="183" height="43">
<path d="M-0.5 43.0001H181.5V7.62939e-05H-0.5V43.0001Z" fill="white"/>
</mask>
<g mask="url(#mask17_229_173)">
<path d="M163.508 37.1527H185.738V9.9445H163.508V37.1527Z" fill="#DDDDDD"/>
</g>
</g>
<mask id="mask18_229_173" style="mask-type:luminance" maskUnits="userSpaceOnUse" x="0" y="0" width="43" height="43">
<path d="M42.8232 21.5C42.8232 33.3736 33.2934 43 21.5367 43C9.78091 43 0.25 33.3736 0.25 21.5C0.25 9.62551 9.78091 0 21.5367 0C33.2934 0 42.8232 9.62551 42.8232 21.5Z" fill="white"/>
</mask>
<g mask="url(#mask18_229_173)">
<mask id="mask19_229_173" style="mask-type:luminance" maskUnits="userSpaceOnUse" x="-1" y="0" width="183" height="43">
<path d="M-0.5 43H181.5V0H-0.5V43Z" fill="white"/>
</mask>
<g mask="url(#mask19_229_173)">
<path d="M-0.5 43H47.2617V-4.47916H-0.5V43Z" fill="#DDDDDD"/>
</g>
</g>
<mask id="mask20_229_173" style="mask-type:luminance" maskUnits="userSpaceOnUse" x="9" y="8" width="25" height="27">
<path d="M24.3193 26.142C24.4452 26.8459 25.1004 27.3283 25.8085 27.3283H28.0389L29.3318 27.1451C27.2633 30.2102 23.6715 31.6207 19.7445 30.9982C16.5479 30.4917 13.8019 28.3071 12.6431 25.2559C10.0128 18.33 15.0208 11.7175 21.5465 11.7175C24.9477 11.7175 27.931 13.727 29.6399 16.1568C30.1327 16.8574 30.9948 17.0598 31.6501 16.6007C32.2721 16.1652 32.4535 15.3379 32.0796 14.6872C29.7139 10.9575 25.4632 8.57092 20.683 8.8944C14.459 9.31589 9.42239 14.4601 9.06416 20.7502C8.64867 28.0696 14.3968 34.0456 21.5465 34.0456C25.3021 34.0456 28.6645 32.3939 30.9551 29.7213L30.6839 31.2544V32.6398C30.6839 33.354 31.1606 34.0167 31.8575 34.1438C32.7729 34.3102 33.5688 33.6043 33.5688 32.7108V24.4137H25.7372C24.8523 24.4137 24.1535 25.2185 24.3193 26.142Z" fill="white"/>
</mask>
<g mask="url(#mask20_229_173)">
<mask id="mask21_229_173" style="mask-type:luminance" maskUnits="userSpaceOnUse" x="-1" y="0" width="183" height="43">
<path d="M-0.5 43H181.5V0H-0.5V43Z" fill="white"/>
</mask>
<g mask="url(#mask21_229_173)">
<path d="M4.60156 38.6475H38.0054V4.38605H4.60156V38.6475Z" fill="#33907F"/>
</g>
</g>
</svg>
