<svg width="110" height="31" viewBox="0 0 110 31" fill="none" xmlns="http://www.w3.org/2000/svg">
<path d="M12.3049 4.974V13.449H4.29855V4.974H0.5V25.205H4.29958V17.005H12.3039V25.205H16.1045V4.974H12.3049ZM28.2662 18.666C28.2662 19.4769 27.935 20.2546 27.3453 20.828C26.7557 21.4014 25.956 21.7235 25.1222 21.7235C24.2883 21.7235 23.4886 21.4014 22.899 20.828C22.3094 20.2546 21.9781 19.4769 21.9781 18.666V10H18.3739V18.666C18.3739 20.4048 19.0842 22.0723 20.3485 23.3018C21.6128 24.5313 23.3275 25.222 25.1155 25.222C26.9035 25.222 28.6182 24.5313 29.8825 23.3018C31.1468 22.0723 31.857 20.4048 31.857 18.666V10H28.2662V18.666ZM54.9722 10.893C54.9722 9.116 56.1805 8.553 57.5039 8.553C58.5713 8.553 59.9801 9.343 60.9025 10.301L63.2624 7.595C62.084 6.045 59.6942 4.974 57.7373 4.974C53.8267 4.974 50.9989 7.201 50.9989 10.893C50.9989 17.743 59.6078 15.569 59.6078 19.403C59.6078 20.585 58.4273 21.629 57.0761 21.629C54.9445 21.629 54.2534 20.616 53.2745 19.544L50.6544 22.193C52.3305 24.193 54.3974 25.209 56.8725 25.209C60.5878 25.209 63.576 22.955 63.576 19.431C63.576 11.827 54.9661 14.19 54.9661 10.893M108.232 21.973C106.102 21.973 105.497 21.077 105.497 19.705V13.63H108.808V10.552H105.497V6.491L101.842 8.086V20.46C101.842 23.625 104.088 25.22 107.167 25.22C107.65 25.228 108.133 25.19 108.608 25.108L109.5 21.916C109.098 21.943 108.636 21.97 108.232 21.97M41.9858 10.101C40.2007 10.101 38.9544 10.605 37.7492 11.754V5.095H34.1399V17.438C34.1399 22.058 37.5744 25.224 41.4346 25.224C45.7165 25.224 49.4832 22.002 49.4832 17.664C49.4832 13.38 46.0168 10.104 41.9858 10.104M41.9632 21.691C41.4253 21.691 40.8926 21.588 40.3956 21.3878C39.8986 21.1876 39.4471 20.8942 39.0667 20.5243C38.6863 20.1544 38.3846 19.7152 38.1788 19.2319C37.9729 18.7486 37.8669 18.2306 37.8669 17.7075C37.8669 17.1844 37.9729 16.6664 38.1788 16.1831C38.3846 15.6998 38.6863 15.2606 39.0667 14.8907C39.4471 14.5208 39.8986 14.2274 40.3956 14.0272C40.8926 13.827 41.4253 13.724 41.9632 13.724C43.0496 13.724 44.0915 14.1437 44.8597 14.8907C45.6279 15.6378 46.0594 16.651 46.0594 17.7075C46.0594 18.764 45.6279 19.7772 44.8597 20.5243C44.0915 21.2713 43.0496 21.691 41.9632 21.691ZM81.1847 17.48C81.1847 13.134 77.4262 9.92 73.1362 9.92C69.2769 9.92 65.8414 13.085 65.8414 17.706V30.056H69.4507V23.388C70.6538 24.535 71.9022 25.041 73.6853 25.041C77.7162 25.041 81.1847 21.765 81.1847 17.48ZM77.7666 17.436C77.7666 18.4925 77.335 19.5057 76.5668 20.2528C75.7986 20.9998 74.7568 21.4195 73.6704 21.4195C72.584 21.4195 71.5421 20.9998 70.7739 20.2528C70.0057 19.5057 69.5741 18.4925 69.5741 17.436C69.5741 16.3795 70.0057 15.3663 70.7739 14.6192C71.5421 13.8722 72.584 13.4525 73.6704 13.4525C74.7568 13.4525 75.7986 13.8722 76.5668 14.6192C77.335 15.3663 77.7666 16.3795 77.7666 17.436Z" fill="#DDDDDD"/>
<path d="M92.8485 9.75V6.223C93.3278 6.00517 93.7336 5.65944 94.0186 5.22606C94.3037 4.79268 94.4564 4.28947 94.4588 3.775V3.694C94.4588 2.194 93.2084 0.978 91.6659 0.978H91.5826C90.8419 0.978 90.1316 1.26415 89.6078 1.7735C89.084 2.28285 88.7898 2.97367 88.7898 3.694V3.775C88.7922 4.28947 88.9449 4.79268 89.23 5.22606C89.515 5.65944 89.9208 6.00517 90.4001 6.223V9.75C89.0226 9.95511 87.7254 10.5105 86.6396 11.36L76.6928 3.826C76.7638 3.577 76.8008 3.321 76.8049 3.064C76.8061 2.45871 76.6227 1.86666 76.2779 1.36274C75.9331 0.858825 75.4423 0.465682 74.8677 0.23304C74.2931 0.000399009 73.6604 -0.0612889 73.0497 0.0557796C72.4391 0.172848 71.8778 0.463414 71.437 0.890722C70.9961 1.31803 70.6955 1.86288 70.5731 2.45637C70.4508 3.04985 70.5121 3.66529 70.7495 4.22485C70.9868 4.78441 71.3895 5.26295 71.9065 5.59993C72.4236 5.93692 73.0318 6.11721 73.6542 6.118C74.1987 6.11551 74.7331 5.97413 75.2039 5.708L84.9984 13.12C84.1185 14.4127 83.6595 15.9331 83.6812 17.4832C83.7028 19.0333 84.2041 20.541 85.1198 21.81L82.1408 24.708C81.9 24.6331 81.6491 24.5933 81.3963 24.59C80.8854 24.5904 80.386 24.7381 79.9614 25.0144C79.5368 25.2906 79.2059 25.6831 79.0105 26.1422C78.8152 26.6014 78.7642 27.1065 78.864 27.5938C78.9638 28.081 79.2098 28.5286 79.5711 28.88C79.9324 29.2313 80.3926 29.4706 80.8937 29.5676C81.3948 29.6646 81.9142 29.615 82.3863 29.4251C82.8584 29.2351 83.262 28.9134 83.5461 28.5004C83.8302 28.0874 83.9821 27.6019 83.9825 27.105C83.9791 26.8592 83.9383 26.6152 83.8611 26.381L86.8082 23.514C87.7693 24.2335 88.8869 24.7295 90.0755 24.9641C91.2641 25.1987 92.4922 25.1656 93.6656 24.8673C94.839 24.569 95.9267 24.0135 96.8452 23.2433C97.7638 22.4731 98.4889 21.5087 98.9649 20.4239C99.441 19.339 99.6554 18.1627 99.5917 16.9848C99.5281 15.807 99.188 14.659 98.5976 13.6287C98.0072 12.5984 97.1822 11.7132 96.1857 11.0409C95.1891 10.3686 94.0476 9.927 92.8485 9.75ZM91.6269 21.35C91.0822 21.3646 90.5401 21.2728 90.0325 21.0802C89.5249 20.8876 89.0622 20.598 88.6716 20.2285C88.2811 19.859 87.9707 19.4171 87.7587 18.929C87.5467 18.4409 87.4375 17.9164 87.4375 17.3865C87.4375 16.8566 87.5467 16.3321 87.7587 15.844C87.9707 15.3559 88.2811 14.914 88.6716 14.5445C89.0622 14.175 89.5249 13.8854 90.0325 13.6928C90.5401 13.5002 91.0822 13.4084 91.6269 13.423C92.6825 13.459 93.6826 13.8919 94.4165 14.6307C95.1504 15.3694 95.5609 16.3564 95.5614 17.3836C95.5619 18.4108 95.1525 19.3981 94.4194 20.1376C93.6862 20.8771 92.6866 21.311 91.631 21.348" fill="#E9E9E9"/>
</svg>
