<svg width="33" height="32" viewBox="0 0 33 32" fill="none" xmlns="http://www.w3.org/2000/svg">
<rect x="0.744629" y="0.5" width="31" height="31" rx="15.5" stroke="#F9FAFB"/>
<g clip-path="url(#clip0_229_551)">
<path d="M19.9136 8H12.5757C10.1875 8 8.24463 9.94287 8.24463 12.331V19.669C8.24463 22.0571 10.1875 24 12.5757 24H19.9137C22.3017 24 24.2446 22.0571 24.2446 19.669V12.331C24.2446 9.94287 22.3017 8 19.9136 8ZM23.3066 19.669C23.3066 21.5399 21.7845 23.062 19.9136 23.062H12.5757C10.7047 23.062 9.18262 21.5399 9.18262 19.669V12.331C9.18262 10.4601 10.7047 8.93799 12.5757 8.93799H19.9137C21.7845 8.93799 23.3066 10.4601 23.3066 12.331V19.669Z" fill="white"/>
<path d="M16.2445 11.625C13.8321 11.625 11.8696 13.5875 11.8696 15.9999C11.8696 18.4122 13.8321 20.3747 16.2445 20.3747C18.6568 20.3747 20.6194 18.4122 20.6194 15.9999C20.6194 13.5875 18.6568 11.625 16.2445 11.625ZM16.2445 19.4368C14.3495 19.4368 12.8076 17.895 12.8076 15.9999C12.8076 14.1049 14.3495 12.563 16.2445 12.563C18.1396 12.563 19.6814 14.1049 19.6814 15.9999C19.6814 17.895 18.1396 19.4368 16.2445 19.4368Z" fill="white"/>
<path d="M20.7239 10.0713C20.011 10.0713 19.4312 10.6512 19.4312 11.364C19.4312 12.0769 20.011 12.6569 20.7239 12.6569C21.4368 12.6569 22.0167 12.0769 22.0167 11.364C22.0167 10.6511 21.4368 10.0713 20.7239 10.0713ZM20.7239 11.7187C20.5283 11.7187 20.3691 11.5596 20.3691 11.364C20.3691 11.1683 20.5283 11.0093 20.7239 11.0093C20.9196 11.0093 21.0787 11.1683 21.0787 11.364C21.0787 11.5596 20.9196 11.7187 20.7239 11.7187Z" fill="white"/>
</g>
<defs>
<clipPath id="clip0_229_551">
<rect width="16" height="16" fill="white" transform="translate(8.24463 8)"/>
</clipPath>
</defs>
</svg>
