<svg width="33" height="32" viewBox="0 0 33 32" fill="none" xmlns="http://www.w3.org/2000/svg">
<rect x="0.244629" width="32" height="32" rx="16" fill="#7DD6C5"/>
<path d="M22.6446 22.4V17.7119C22.6446 15.4079 22.1486 13.6479 19.4606 13.6479C18.1646 13.6479 17.3006 14.3519 16.9486 15.0239H16.9166V13.8559H14.3726V22.4H17.0286V18.1599C17.0286 17.0399 17.2366 15.9679 18.6126 15.9679C19.9726 15.9679 19.9886 17.2319 19.9886 18.2239V22.384H22.6446V22.4Z" fill="#012F2C"/>
<path d="M10.0527 13.856H12.7087V22.4H10.0527V13.856Z" fill="#012F2C"/>
<path d="M11.3807 9.6001C10.5327 9.6001 9.84473 10.2881 9.84473 11.1361C9.84473 11.9841 10.5327 12.6881 11.3807 12.6881C12.2287 12.6881 12.9167 11.9841 12.9167 11.1361C12.9167 10.2881 12.2287 9.6001 11.3807 9.6001Z" fill="#012F2C"/>
</svg>
