<svg width="36" height="36" viewBox="0 0 36 36" fill="none" xmlns="http://www.w3.org/2000/svg">
<g clip-path="url(#clip0_241_114)">
<path d="M35.9063 34.7976L31.5863 26.1576C31.53 26.0455 31.4436 25.9512 31.3368 25.8854C31.23 25.8195 31.107 25.7846 30.9815 25.7846C30.856 25.7846 30.733 25.8195 30.6262 25.8854C30.5194 25.9512 30.433 26.0455 30.3767 26.1576L26.6399 33.588L22.9319 26.1864C22.875 26.073 22.789 25.9766 22.6828 25.907C22.5766 25.8375 22.4539 25.7972 22.3271 25.7904H14.0759L10.5623 18.7848H26.6399C26.7667 18.778 26.8894 18.7378 26.9956 18.6682C27.1018 18.5987 27.1878 18.5023 27.2447 18.3888C27.3086 18.264 27.3418 18.1258 27.3418 17.9856C27.3418 17.8454 27.3086 17.7072 27.2447 17.5824L22.9247 8.94242L18.6047 0.302414C18.5484 0.190281 18.462 0.0960137 18.3552 0.0301404C18.2484 -0.0357328 18.1254 -0.0706177 17.9999 -0.0706177C17.8744 -0.0706177 17.7514 -0.0357328 17.6446 0.0301404C17.5378 0.0960137 17.4514 0.190281 17.3951 0.302414L13.0751 8.94242L8.75513 17.5824L4.43513 26.1864L0.115129 34.7904C0.0546289 34.915 0.0231934 35.0516 0.0231934 35.19C0.0231934 35.3285 0.0546289 35.4651 0.115129 35.5896C0.166083 35.7088 0.250158 35.8107 0.357366 35.8835C0.464575 35.9562 0.590412 35.9967 0.719929 36H35.2799C35.4086 35.9973 35.5339 35.9579 35.641 35.8865C35.7482 35.8151 35.8327 35.7146 35.8847 35.5968C35.9486 35.4739 35.9838 35.3382 35.9875 35.1997C35.9912 35.0613 35.9635 34.9238 35.9063 34.7976ZM6.23513 25.7904L9.35993 19.5912L12.4775 25.7904H6.23513Z" fill="white"/>
</g>
<defs>
<clipPath id="clip0_241_114">
<rect width="36" height="36" fill="white"/>
</clipPath>
</defs>
</svg>
