<svg width="148" height="41" viewBox="0 0 148 41" fill="none" xmlns="http://www.w3.org/2000/svg">
<g clip-path="url(#clip0_229_302)">
<path d="M28.5143 19.4016C28.8028 19.3664 29.0795 19.3656 29.3333 19.4016C29.4803 19.06 29.5056 18.4721 29.3736 17.8321C29.1767 16.8801 28.9111 16.3041 28.3617 16.3937C27.8122 16.4833 27.7917 17.1729 27.9885 18.1249C28.0992 18.66 28.2953 19.1184 28.5143 19.4016Z" fill="#DDDDDD"/>
<path d="M23.7963 20.1552C24.19 20.3296 24.4311 20.4456 24.5259 20.3448C24.5868 20.2816 24.5686 20.1616 24.4746 20.0064C24.2809 19.6856 23.8809 19.3608 23.4579 19.1776C22.5915 18.8 21.5582 18.9256 20.7614 19.5056C20.4981 19.7008 20.2491 19.9712 20.2847 20.1352C20.2965 20.188 20.3353 20.228 20.4277 20.2416C20.6444 20.2664 21.4025 19.8792 22.276 19.8248C22.8927 19.7864 23.4034 19.9808 23.7963 20.1552Z" fill="#DDDDDD"/>
<path d="M23.0035 20.6119C22.4912 20.6935 22.209 20.8647 22.0272 21.0239C21.8722 21.1607 21.7766 21.3119 21.7773 21.4183L21.8169 21.5127L21.9015 21.5455C22.0169 21.5455 22.2762 21.4407 22.2762 21.4407C22.9893 21.1823 23.4596 21.2135 23.9253 21.2671C24.183 21.2967 24.3047 21.3127 24.3609 21.2231C24.3775 21.1975 24.398 21.1423 24.3466 21.0575C24.2265 20.8607 23.7094 20.5279 23.0043 20.6127L23.0035 20.6119Z" fill="#DDDDDD"/>
<path d="M26.9201 22.2888C27.2679 22.4616 27.6505 22.3936 27.7754 22.1368C27.9003 21.88 27.7193 21.532 27.3715 21.3592C27.0236 21.1864 26.641 21.2544 26.5161 21.5112C26.3912 21.768 26.5722 22.116 26.9201 22.2888Z" fill="#DDDDDD"/>
<path d="M29.1563 20.3118C28.8741 20.307 28.6393 20.6206 28.6329 21.0134C28.6266 21.4054 28.8503 21.727 29.1326 21.7318C29.4148 21.7366 29.6496 21.423 29.6559 21.031C29.6622 20.639 29.4385 20.3174 29.1563 20.3118Z" fill="#DDDDDD"/>
<path d="M10.1797 27.3822C10.1094 27.2934 9.99394 27.3206 9.88248 27.3462C9.80421 27.3646 9.71567 27.3854 9.61922 27.3838C9.41131 27.3798 9.23502 27.2902 9.1362 27.1366C9.00734 26.9366 9.01524 26.6382 9.15675 26.2966L9.22316 26.1438C9.45005 25.6294 9.82872 24.7678 9.4034 23.9479C9.08323 23.3303 8.55989 22.9455 7.9314 22.8647C7.32821 22.7871 6.70684 23.0135 6.31078 23.4559C5.68545 24.1534 5.58821 25.103 5.70917 25.439C5.75344 25.5622 5.82301 25.5958 5.87281 25.603C5.97954 25.6174 6.13607 25.539 6.23488 25.271L6.26334 25.1838C6.30761 25.0422 6.38904 24.7782 6.52264 24.5662C6.68392 24.311 6.93531 24.135 7.23097 24.071C7.53138 24.0062 7.83891 24.0638 8.09584 24.2342C8.5338 24.5246 8.70219 25.067 8.51562 25.5854C8.41917 25.8534 8.26185 26.3654 8.29663 26.7862C8.36699 27.6382 8.8848 27.9806 9.34965 28.0166C9.80184 28.0342 10.1181 27.7766 10.1979 27.5886C10.2453 27.4774 10.205 27.4102 10.1797 27.3806V27.3822Z" fill="#DDDDDD"/>
<path d="M36.2872 25.8239C36.2698 25.7623 36.1575 25.3471 36.0034 24.8471L35.6895 23.9951C36.3077 23.0583 36.3188 22.2207 36.2366 21.7463C36.1488 21.1583 35.9069 20.6567 35.4192 20.1391C34.9314 19.6207 33.9345 19.0903 32.5329 18.6927L31.7977 18.4863C31.7937 18.4559 31.7589 16.7319 31.7273 15.9919C31.7044 15.4567 31.6585 14.6223 31.4024 13.7992C31.0972 12.6856 30.566 11.712 29.9019 11.0888C31.7336 9.16797 32.8768 7.05117 32.8736 5.23598C32.8681 1.74479 28.6315 0.687998 23.4099 2.87599L22.304 3.35119C22.2992 3.34639 20.3039 1.36559 20.2738 1.33919C14.321 -3.91519 -4.29248 17.0207 1.65877 22.1055L2.95922 23.2207C2.62166 24.1047 2.48964 25.1183 2.59794 26.2079C2.73708 27.6071 3.45015 28.9487 4.60673 29.9855C5.70401 30.9695 7.14755 31.5927 8.54761 31.5911C10.8631 36.9919 16.1543 40.3046 22.3585 40.4911C29.0133 40.691 34.6002 37.5311 36.941 31.8543C37.0943 31.4559 37.7442 29.6607 37.7442 28.0759C37.7442 26.4831 36.8548 25.8231 36.288 25.8231L36.2872 25.8239ZM9.0591 30.0743C8.85672 30.1095 8.65038 30.1231 8.44247 30.1183C6.4321 30.0639 4.26126 28.2327 4.04544 26.0607C3.80669 23.6607 5.0186 21.8127 7.16494 21.3751C7.42108 21.3231 7.73177 21.2927 8.06617 21.3103C9.26859 21.3767 11.0402 22.3111 11.445 24.9615C11.8031 27.3087 11.2339 29.6991 9.0591 30.0743ZM6.81473 19.9391C5.4787 20.2023 4.30157 20.9679 3.58138 22.0263C3.15133 21.6631 2.34892 20.9599 2.20741 20.6863C1.05795 18.4775 3.46201 14.1831 5.14114 11.7584C9.29152 5.76478 15.7914 1.2288 18.801 2.05119C19.2904 2.19119 20.9102 4.09198 20.9102 4.09198C20.9102 4.09198 17.9022 5.78078 15.1131 8.13517C11.3549 11.064 8.5152 15.3199 6.81473 19.9391ZM27.9129 29.1767C27.9564 29.1583 27.9864 29.1071 27.9817 29.0575C27.9754 28.9959 27.9208 28.9511 27.8599 28.9575C27.8599 28.9575 24.7112 29.4295 21.7363 28.3271C22.0605 27.2615 22.9222 27.6463 24.2242 27.7527C26.5713 27.8943 28.675 27.5471 30.2292 27.0959C31.5763 26.7047 33.3455 25.9335 34.7203 24.8359C35.1836 25.8663 35.3472 26.9999 35.3472 26.9999C35.3472 26.9999 35.7061 26.9351 36.0057 27.1215C36.2888 27.2983 36.4967 27.6647 36.3552 28.6135C36.0658 30.3855 35.3219 31.8231 34.0713 33.1463C33.31 33.9759 32.3858 34.6967 31.3281 35.2207C30.7668 35.5191 30.1683 35.7775 29.5367 35.9863C24.8219 37.5447 19.9948 35.8311 18.439 32.1519C18.3148 31.8751 18.2097 31.5855 18.1267 31.2831C17.4634 28.8583 18.0263 25.9495 19.7861 24.1183C19.8944 24.0015 20.005 23.8639 20.005 23.6911C20.005 23.5463 19.9141 23.3943 19.8359 23.2863C19.22 22.3831 17.0879 20.8431 17.5164 17.8631C17.8239 15.7223 19.6738 14.2151 21.3988 14.3047L21.8359 14.3303C22.583 14.3751 23.2352 14.4719 23.8511 14.4983C24.8811 14.5431 25.8069 14.3919 26.9034 13.4672C27.2733 13.1552 27.5698 12.8848 28.0718 12.7984C28.1248 12.7896 28.256 12.7416 28.5177 12.7544C28.7857 12.7688 29.0402 12.8432 29.2695 12.9976C30.1486 13.5896 30.2735 15.0239 30.3193 16.0727C30.3454 16.6719 30.4166 18.1207 30.4411 18.5359C30.4972 19.4871 30.7439 19.6207 31.2435 19.7879C31.5249 19.8815 31.7858 19.9511 32.17 20.0607C33.3337 20.3911 34.0238 20.7271 34.4594 21.1575C34.7187 21.4271 34.8397 21.7127 34.8768 21.9863C35.0144 22.9999 34.0997 24.2511 31.6783 25.3887C29.0315 26.6319 25.8211 26.9463 23.6028 26.6967L22.8257 26.6079C21.0509 26.3663 20.039 28.6871 21.1039 30.2767C21.7901 31.3015 23.6597 31.9679 25.5302 31.9687C29.8189 31.9695 33.1155 30.1159 34.3416 28.5151L34.4397 28.3735C34.4997 28.2815 34.4499 28.2311 34.3748 28.2831C33.3732 28.9767 28.9232 31.7311 24.1633 30.9023C24.1633 30.9023 23.5846 30.8063 23.0573 30.5983C22.6376 30.4335 21.7601 30.0247 21.6533 29.1127C25.4946 30.3151 27.9129 29.1783 27.9129 29.1783V29.1767ZM21.828 28.4495L21.8288 28.4503L21.8296 28.4519L21.828 28.4495ZM14.4799 11.7328C15.9551 10.0072 17.7717 8.50717 19.3987 7.66477C19.4548 7.63597 19.5149 7.69757 19.4841 7.75357C19.3552 7.99037 19.1062 8.49757 19.0271 8.88157C19.0145 8.94157 19.0793 8.98637 19.1291 8.95197C20.141 8.25357 21.9024 7.50557 23.4471 7.40957C23.5135 7.40557 23.5451 7.49117 23.4929 7.53277C23.2581 7.71517 23.0012 7.96717 22.8139 8.22237C22.7822 8.26557 22.8123 8.32797 22.8652 8.32877C23.9499 8.33677 25.4788 8.72077 26.4749 9.28637C26.5421 9.32477 26.4947 9.45677 26.4188 9.43917C24.9112 9.08957 22.4431 8.82397 19.8793 9.45677C17.5907 10.0216 15.8436 10.8936 14.5692 11.832C14.5052 11.8792 14.4277 11.7944 14.4799 11.7328Z" fill="#DDDDDD"/>
<path d="M142.785 15.7894C140.579 15.7894 139.569 17.463 139.129 18.4158C138.839 19.0454 138.853 19.2302 138.641 19.2302C138.335 19.2302 138.589 18.7246 138.727 18.1294C138.999 16.9582 138.792 16.0638 138.792 16.0638H135.648V31.327H139.939V26.4878C140.446 27.359 141.387 28.2902 142.837 28.2902C145.939 28.2902 147.5 25.6334 147.5 22.0446C147.5 17.9766 145.631 15.7878 142.784 15.7878L142.785 15.7894ZM141.607 25.4574C140.623 25.4574 139.899 24.195 139.899 22.435C139.899 20.7262 140.643 19.4134 141.573 19.4134C142.767 19.4134 143.276 20.5214 143.276 22.435C143.276 24.4254 142.807 25.4574 141.607 25.4574Z" fill="#DDDDDD"/>
<path d="M57.5057 15.7895C55.6186 15.7895 54.685 17.2927 54.2565 18.2615C54.017 18.8031 53.9506 19.2311 53.7561 19.2311C53.4826 19.2311 53.6786 18.8591 53.4549 18.0343C53.16 16.9487 52.273 15.7895 50.3868 15.7895C48.4041 15.7895 47.5551 17.4847 47.1527 18.4159C46.8776 19.0527 46.8768 19.2303 46.6649 19.2303C46.3582 19.2303 46.6127 18.7247 46.7503 18.1295C47.0222 16.9583 46.8151 16.0639 46.8151 16.0639H43.6719V28.0239H47.9622V22.0735C47.9622 20.8999 48.4476 19.4103 49.2792 19.4103C50.2398 19.4103 50.4326 20.1575 50.4326 21.5399V28.0271H54.7403V22.0735C54.7403 21.0287 55.1617 19.4103 56.0637 19.4103C57.0377 19.4103 57.2108 20.4591 57.2108 21.5399V28.0239H61.441V20.9903C61.441 17.8687 60.354 15.7879 57.5065 15.7879L57.5057 15.7895ZM130.326 15.7895C128.439 15.7895 127.506 17.2927 127.077 18.2615C126.838 18.8031 126.771 19.2311 126.577 19.2311C126.303 19.2311 126.486 18.7583 126.276 18.0343C125.961 16.9543 125.179 15.7895 123.207 15.7895C121.225 15.7895 120.376 17.4847 119.973 18.4159C119.698 19.0527 119.697 19.2303 119.485 19.2303C119.179 19.2303 119.433 18.7247 119.571 18.1295C119.843 16.9583 119.636 16.0639 119.636 16.0639H116.492V28.0239H120.783V22.0735C120.783 20.8999 121.268 19.4103 122.1 19.4103C123.06 19.4103 123.253 20.1575 123.253 21.5399V28.0271H127.561V22.0735C127.561 21.0287 127.982 19.4103 128.884 19.4103C129.858 19.4103 130.031 20.4591 130.031 21.5399V28.0239H134.262V20.9903C134.262 17.8687 133.175 15.7879 130.327 15.7879L130.326 15.7895ZM68.7655 15.7919C65.4792 15.7919 63.121 17.0143 63.121 17.0143V20.6087C63.121 20.6087 65.725 19.0935 67.8374 19.0935C69.5236 19.0935 69.7307 20.0135 69.654 20.7775C69.654 20.7775 69.1679 20.6471 67.684 20.6471C64.1874 20.6471 62.4221 22.2551 62.4221 24.8343C62.4221 27.2807 64.4056 28.3031 66.0776 28.3031C68.5165 28.3031 69.5884 26.6447 69.9181 25.8575C70.1466 25.3119 70.1885 24.9439 70.394 24.9439C70.628 24.9439 70.549 25.2079 70.5379 25.7511C70.5181 26.7023 70.5624 27.4223 70.7118 28.0279H73.9452V22.1415C73.9452 18.4663 72.6597 15.7919 68.7655 15.7919ZM67.7212 25.2295C66.695 25.4695 66.1638 25.1495 66.1638 24.4615C66.1638 23.5191 67.1275 23.1415 68.5022 23.1415C69.1086 23.1415 69.6786 23.1943 69.6786 23.1943C69.6786 23.5983 68.8129 24.9751 67.7212 25.2295ZM81.0119 12.444H85.3022V28.0279H81.0119V12.444ZM90.0241 22.0471C90.0241 20.9719 91.0115 19.9935 92.8235 19.9935C94.7982 19.9935 96.3865 20.9559 96.743 21.1743V17.0143C96.743 17.0143 95.4884 15.7919 92.4037 15.7919C89.1521 15.7919 86.4445 17.7175 86.4445 21.8615C86.4445 26.0055 88.9015 28.3031 92.395 28.3031C95.1232 28.3031 96.7501 26.7863 96.7501 26.7863V22.8351C96.2355 23.1263 94.8014 24.1335 92.8432 24.1335C90.7696 24.1335 90.0233 23.1679 90.0233 22.0479L90.0241 22.0471ZM105.434 15.7919C102.95 15.7919 102.006 18.1735 101.815 18.5871C101.625 19.0007 101.53 19.2383 101.374 19.2335C101.103 19.2247 101.292 18.7255 101.398 18.4031C101.598 17.7927 102.021 16.1927 102.021 14.2247C102.021 12.8904 101.842 12.444 101.842 12.444H98.1383V28.0279H102.429V22.0775C102.429 21.1079 102.81 19.4143 103.892 19.4143C104.787 19.4143 105.067 20.0855 105.067 21.4375V28.0287H109.358V21.6983C109.358 18.6279 108.855 15.7935 105.434 15.7935V15.7919ZM110.752 16.0807V28.0271H115.043V16.0807C115.043 16.0807 114.322 16.5079 112.902 16.5079C111.482 16.5079 110.752 16.0807 110.752 16.0807Z" fill="#DDDDDD"/>
<path d="M115.51 14.0576C115.51 15.0156 114.335 15.792 112.884 15.792C111.433 15.792 110.258 15.0156 110.258 14.0576C110.258 13.0997 111.433 12.3232 112.884 12.3232C114.335 12.3232 115.51 13.0997 115.51 14.0576Z" fill="#DDDDDD"/>
<path d="M75.332 16.0808V28.0272H79.6223V16.0808C79.6223 16.0808 78.9014 16.508 77.4815 16.508L75.332 16.0808Z" fill="#DDDDDD"/>
<path d="M80.0922 14.0576C80.0922 15.0156 78.9165 15.792 77.466 15.792C76.0156 15.792 74.8398 15.0156 74.8398 14.0576C74.8398 13.0997 76.0156 12.3232 77.466 12.3232C78.9165 12.3232 80.0922 13.0997 80.0922 14.0576Z" fill="#DDDDDD"/>
</g>
<defs>
<clipPath id="clip0_229_302">
<rect width="147" height="40" fill="white" transform="translate(0.5 0.5)"/>
</clipPath>
</defs>
</svg>
