<svg width="170" height="33" viewBox="0 0 170 33" fill="none" xmlns="http://www.w3.org/2000/svg">
<path d="M162.469 23.8816C164.886 23.8816 167.334 23.0752 169.123 21.6795C169.154 21.6485 169.154 21.6175 169.123 21.6175L167.365 19.5085C167.334 19.4774 167.302 19.4774 167.302 19.5085C165.827 20.532 164.227 21.0592 162.532 21.0592C159.99 21.0592 158.452 19.8806 158.076 17.6786L158.044 17.4305H169.499V16.6551C169.499 12.4991 166.11 9.08741 161.967 9.0564C161.936 9.0564 161.904 9.0564 161.873 9.0564C159.613 9.0564 157.605 9.80076 156.193 11.1964C154.843 12.5301 154.09 14.422 154.09 16.469C154.121 20.9662 157.385 23.8816 162.469 23.8816ZM158.358 14.484C158.892 12.8402 160.147 11.9408 161.873 11.9408C163.599 11.9408 164.823 12.8402 165.388 14.484C165.451 14.6391 165.419 14.7942 165.325 14.9182C165.231 15.0423 165.074 15.1353 164.917 15.1353H158.86C158.703 15.1353 158.546 15.0423 158.452 14.9182C158.327 14.7942 158.295 14.6391 158.358 14.484Z" fill="#DDDDDD"/>
<path d="M139.371 16.531C139.371 20.749 142.823 23.9436 147.437 23.9436C149.696 23.9436 151.768 23.1682 153.274 21.7415V21.6485L151.14 19.3534C150.324 20.3769 149.037 20.9972 147.688 20.9972C146.997 20.9972 146.338 20.8421 145.711 20.5319C145.679 20.5319 145.648 20.5009 145.616 20.4699L145.585 20.4389L145.522 20.4079C144.644 19.9737 143.922 19.1983 143.545 18.2678C143.451 18.0507 143.388 17.8336 143.325 17.5855C143.294 17.4615 143.263 17.3684 143.263 17.2754L143.231 17.1203C143.231 17.0583 143.2 16.9652 143.2 16.9032C143.2 16.8101 143.2 16.7171 143.2 16.624C143.2 16.562 143.2 16.531 143.2 16.531C143.2 16.438 143.2 16.3449 143.2 16.2519V16.1898C143.2 16.1588 143.2 16.1588 143.2 16.1278C143.263 15.6316 143.388 15.1043 143.608 14.6391C143.639 14.5771 143.671 14.484 143.702 14.422C144.11 13.6156 144.738 13.0263 145.491 12.6231C146.15 12.2509 146.903 12.0648 147.688 12.0648C149.037 12.0648 150.293 12.6541 151.171 13.7086L153.305 11.3515C151.799 9.9248 149.696 9.11841 147.405 9.11841C142.823 9.11841 139.371 12.313 139.371 16.531Z" fill="#DDDDDD"/>
<path d="M137.24 23.2613V16.0348C137.114 12.7472 136.204 9.70776 130.649 9.70776C129.488 9.70776 128.452 9.86284 127.573 10.204L127.26 10.3281V9.76979C127.26 9.73878 127.228 9.73878 127.228 9.73878H124.121C124.09 9.73878 124.09 9.76979 124.09 9.76979V23.2613C124.09 23.2924 124.121 23.3234 124.153 23.3234H127.73C127.762 23.3234 127.793 23.2924 127.793 23.2613V15.6627C127.793 15.2284 127.856 14.8252 127.95 14.4531C128.358 13.3986 129.456 12.6542 130.68 12.6232C131.873 12.6232 133.003 13.3675 133.411 14.422C133.536 14.7942 133.568 15.1974 133.568 15.6316V23.2303C133.568 23.2613 133.599 23.2924 133.63 23.2924L137.24 23.2613C137.24 23.2924 137.208 23.3234 137.24 23.2613Z" fill="#DDDDDD"/>
<path d="M107.832 9.76979V17.0273C107.958 20.3149 108.868 23.3544 114.423 23.3544C120.072 23.3544 120.888 19.6326 121.013 16.8722V9.76979C121.013 9.73878 120.982 9.70776 120.95 9.70776H117.373C117.341 9.70776 117.31 9.73878 117.31 9.76979V17.3685C117.31 17.8027 117.247 18.2059 117.153 18.5781C116.745 19.6326 115.647 20.3769 114.423 20.408C113.23 20.408 112.1 19.6636 111.692 18.6091C111.567 18.2369 111.535 17.8337 111.535 17.3995V9.76979C111.535 9.73878 111.504 9.70776 111.473 9.70776H107.895C107.863 9.70776 107.832 9.73878 107.832 9.76979Z" fill="#DDDDDD"/>
<path d="M97.4445 9.0564C92.8625 9.0564 89.3789 12.2509 89.3789 16.469C89.3789 20.687 92.8311 23.8816 97.4445 23.8816C102.058 23.8816 105.541 20.687 105.541 16.469C105.541 12.2199 102.058 9.0564 97.4445 9.0564ZM97.4445 20.8111C95.0593 20.8111 93.2391 18.9502 93.2391 16.469C93.2391 14.0188 95.0907 12.1269 97.4445 12.1269C99.8296 12.1269 101.681 14.0498 101.681 16.469C101.681 18.8882 99.7982 20.8111 97.4445 20.8111Z" fill="#DDDDDD"/>
<path d="M80.9689 23.6334C84.7663 23.6334 87.6536 20.5319 87.6536 16.4379C87.6536 12.3749 84.7349 9.18036 80.9689 9.18036C78.9604 9.18036 77.1401 9.98675 75.8534 11.4755L75.4454 11.9097V2.85329C75.4454 2.82227 75.4141 2.79126 75.3827 2.79126H71.805C71.7736 2.79126 71.7422 2.82227 71.7422 2.85329V23.2612C71.7422 23.2922 71.7736 23.3232 71.805 23.3232H75.163C75.1944 23.3232 75.2258 23.2922 75.2258 23.2612V20.718L75.6337 21.1832C76.9205 22.7649 78.8035 23.6334 80.9689 23.6334ZM80.1843 12.2819C82.5695 12.2819 84.327 14.0187 84.327 16.4069C84.327 18.764 82.5381 20.5319 80.1843 20.5319C77.8306 20.5319 75.979 18.733 75.979 16.4379C75.979 14.0807 77.7992 12.2819 80.1843 12.2819Z" fill="#DDDDDD"/>
<path d="M68.8527 23.3234C68.8841 23.3234 68.9154 23.2924 68.9154 23.2613V16.0348C68.7899 12.7472 67.8798 9.70776 62.3249 9.70776C61.1637 9.70776 60.1281 9.86284 59.2493 10.204L58.9355 10.3281V9.76979C58.9355 9.73878 58.9041 9.73878 58.8727 9.73878H55.7658C55.7344 9.73878 55.7344 9.76979 55.7344 9.76979V23.2613C55.7344 23.2924 55.7658 23.3234 55.7971 23.3234H59.3749C59.4062 23.3234 59.4376 23.2924 59.4376 23.2613V15.6627C59.4376 15.2284 59.5004 14.8252 59.5945 14.4531C60.0025 13.3986 61.1009 12.6542 62.3249 12.6232C63.5175 12.6232 64.6473 13.3675 65.0553 14.422C65.1808 14.7942 65.2122 15.1974 65.2122 15.6316V23.2303C65.2122 23.2613 65.2436 23.2924 65.2749 23.2924H68.8527V23.3234Z" fill="#DDDDDD"/>
<path d="M39.7305 9.76979V17.0273C39.856 20.3149 40.7661 23.3544 46.321 23.3544C51.97 23.3544 52.786 19.6326 52.9115 16.8722V9.76979C52.9115 9.73878 52.8801 9.70776 52.8488 9.70776H49.271C49.2397 9.70776 49.2083 9.73878 49.2083 9.76979V17.3685C49.2083 17.8027 49.1455 18.2059 49.0514 18.5781C48.6434 19.6326 47.545 20.3769 46.321 20.408C45.1284 20.408 43.9986 19.6636 43.5906 18.6091C43.4651 18.2369 43.4337 17.8337 43.4337 17.3995V9.76979C43.4337 9.73878 43.4023 9.70776 43.371 9.70776H39.7932C39.7305 9.70776 39.7305 9.73878 39.7305 9.76979Z" fill="#DDDDDD"/>
<path d="M17.196 0C7.96927 0 0.5 7.38158 0.5 16.5C0.5 25.6184 7.96927 33 17.196 33C26.4228 33 33.892 25.6184 33.892 16.5C33.892 7.38158 26.4228 0 17.196 0ZM16.5997 22.9821L15.3758 26.5489C15.3444 26.6729 15.2816 26.766 15.2189 26.859C15.0619 27.1071 14.8736 27.2932 14.6226 27.4173C14.4029 27.5414 14.1518 27.6034 13.9007 27.6034C13.7438 27.6034 13.5555 27.5724 13.3986 27.5103C12.7082 27.2622 12.2688 26.5799 12.363 25.8976C8.91077 24.1607 6.55701 20.594 6.55701 16.5C6.55701 10.6692 11.3273 5.92387 17.2588 5.92387C17.9492 5.92387 18.6083 5.9859 19.2673 6.10996C19.6439 5.52068 20.3971 5.24154 21.0876 5.45865C21.4642 5.58271 21.7466 5.83083 21.9349 6.14098C22.0918 6.42011 22.186 6.73026 22.1546 7.07143C22.1546 7.19549 22.1232 7.31955 22.0918 7.41259L20.8679 10.9793L16.5997 22.9821ZM17.9492 27.0451L19.4242 22.641C21.9663 21.7415 23.7865 19.3534 23.7865 16.5C23.7865 15.1664 23.3786 13.8947 22.6567 12.8712L24.1318 8.4671C26.4228 10.39 27.8978 13.2744 27.8978 16.5C27.8664 22.0827 23.5041 26.6419 17.9492 27.0451Z" fill="#DDDDDD"/>
<path d="M10.6055 16.5C10.6055 18.7951 11.8294 20.8111 13.6497 21.9897L17.7923 10.0179C17.604 9.98685 17.3843 9.98685 17.196 9.98685C13.5555 9.98685 10.6055 12.9023 10.6055 16.5Z" fill="#DDDDDD"/>
</svg>
