<svg width="33" height="32" viewBox="0 0 33 32" fill="none" xmlns="http://www.w3.org/2000/svg">
<rect x="0.744629" y="0.5" width="31" height="31" rx="15.5" stroke="#F9FAFB"/>
<g clip-path="url(#clip0_229_556)">
<path d="M21.2486 10.374H11.2325C10.4693 10.3749 9.73766 10.6784 9.19803 11.2181C8.6584 11.7577 8.35486 12.4893 8.354 13.2525V18.7473C8.35486 19.5104 8.6584 20.2421 9.19803 20.7817C9.73766 21.3213 10.4693 21.6249 11.2325 21.6257H21.2486C22.0118 21.6249 22.7434 21.3213 23.2831 20.7817C23.8227 20.2421 24.1262 19.5104 24.1271 18.7473V13.2525C24.1262 12.4894 23.8227 11.7577 23.2831 11.2181C22.7434 10.6784 22.0118 10.3749 21.2486 10.374ZM18.7348 16.1023L15.0917 18.2056C15.0502 18.2364 14.9996 18.2523 14.948 18.2509C14.92 18.207 14.9082 18.1548 14.9144 18.1032V13.8965C14.9085 13.8452 14.92 13.7934 14.947 13.7494C14.9511 13.7482 14.9554 13.7477 14.9596 13.7479C15.0068 13.7521 15.0522 13.768 15.0918 13.7942L18.7348 15.8975C18.8222 15.9479 18.8447 15.9915 18.8459 15.9993C18.8447 16.0082 18.8222 16.0518 18.7348 16.1023Z" fill="white"/>
</g>
<defs>
<clipPath id="clip0_229_556">
<rect width="16" height="16" fill="white" transform="translate(8.24463 8)"/>
</clipPath>
</defs>
</svg>
